<?xml version="1.0" encoding="utf-8"?>
<!-- Generator: Adobe Illustrator 21.0.2, SVG Export Plug-In . SVG Version: 6.00 Build 0)  -->
<svg version="1.1" id="Layer_1" xmlns="http://www.w3.org/2000/svg" xmlns:xlink="http://www.w3.org/1999/xlink" x="0px" y="0px"
	 width="31.8px" height="66.2px" viewBox="0 0 31.8 66.2" style="enable-background:new 0 0 31.8 66.2;" xml:space="preserve">
<style type="text/css">
	.st0{fill:#0075A3;}
</style>
<g>
	<circle class="st0" cx="40.9" cy="611.6" r="5.9"/>
	<path class="st0" d="M54.1,628.1c0.2-3.5-2.4-9.3-8.3-9.3H36c-5.9,0-8.6,5.8-8.3,9.3L27.5,645c0.1,1.1,1,2,2.2,1.9
		c1.1-0.1,1.8-1,1.9-2.2l0.9-13.8c0-0.3,0.2-0.5,0.5-0.4c0.3,0,0.5,0.2,0.4,0.5l0,0v39.3c0,0.9,0.7,1.6,1.6,1.6h2.7
		c0.9,0,1.5-0.6,1.6-1.6l1-21.8c0.1-0.6,0-1,0.6-1h0c0.5,0,0.5,0.4,0.6,1l1,21.8c0.1,1,0.7,1.6,1.6,1.6h2.7c0.9,0,1.6-0.7,1.6-1.6
		l0-39.3h0c0-0.3,0.2-0.5,0.4-0.5c0.3,0,0.5,0.2,0.5,0.4l0.9,13.8c0,1.1,0.8,2.1,1.9,2.2c1.1,0.1,2.1-0.8,2.2-1.9L54.1,628.1z"/>
</g>
<g>
	<circle class="st0" cx="15.9" cy="6" r="5.9"/>
	<path class="st0" d="M29.1,22.4c0.2-3.5-2.4-9.3-8.3-9.3h-9.7c-5.9,0-8.6,5.8-8.3,9.3L2.6,39.3c0.1,1.1,1,2,2.2,1.9
		c1.1-0.1,1.8-1,1.9-2.2l0.9-13.8c0-0.3,0.2-0.5,0.5-0.4c0.3,0,0.5,0.2,0.4,0.5l0,0v39.3c0,0.9,0.7,1.6,1.6,1.6h2.7
		c0.9,0,1.5-0.6,1.6-1.6l1-21.8c0.1-0.6,0-1,0.6-1h0c0.5,0,0.5,0.4,0.6,1l1,21.8c0.1,1,0.7,1.6,1.6,1.6h2.7c0.9,0,1.6-0.7,1.6-1.6
		l0-39.3h0c0-0.3,0.2-0.5,0.4-0.5c0.3,0,0.5,0.2,0.5,0.4L25.2,39c0,1.1,0.8,2.1,1.9,2.2c1.1,0.1,2.1-0.8,2.2-1.9L29.1,22.4z"/>
</g>
</svg>
