<?xml version="1.0" encoding="utf-8"?>
<!-- Generator: Adobe Illustrator 21.0.2, SVG Export Plug-In . SVG Version: 6.00 Build 0)  -->
<svg version="1.1" id="Layer_1" xmlns="http://www.w3.org/2000/svg" xmlns:xlink="http://www.w3.org/1999/xlink" x="0px" y="0px"
	 width="31.8px" height="66.2px" viewBox="0 0 31.8 66.2" style="enable-background:new 0 0 31.8 66.2;" xml:space="preserve">
<style type="text/css">
	.st0{fill:#0075A3;}
</style>
<g>
	<circle class="st0" cx="15.9" cy="5.9" r="5.9"/>
	<path class="st0" d="M31.8,37.3l-3.3-16.6c-0.6-3.5-3.7-7.6-8.7-7.6H12c-5,0-8.2,4-8.8,7.6L0,37.3c-0.2,1.1,0.6,2.2,1.7,2.3
		C2.8,39.8,3.7,39,4,38l4.2-14c0.1-0.2,0.3-0.4,0.6-0.3c0.2,0.1,0.4,0.3,0.3,0.6L3.8,47.5C3.6,48.3,4.2,49,5,49l1.5,0
		c0.9,0,1.7,0.7,1.8,1.6l2.3,14.1c0.1,0.9,1,1.6,1.8,1.6h6.7c0.9,0,1.7-0.7,1.8-1.6l1.9-14.1c0.1-0.9,0.9-1.6,1.8-1.6l1.6,0
		c0.9,0,1.4-0.7,1.3-1.5l-4.8-23.3c-0.1-0.2,0.1-0.5,0.3-0.6c0.2-0.1,0.5,0.1,0.6,0.3l4.2,14c0.3,1.1,1.2,1.9,2.3,1.7
		C31.2,39.4,32,38.4,31.8,37.3z"/>
</g>
</svg>
